<svg xmlns="http://www.w3.org/2000/svg" viewBox="0 0 877 969" role="img" aria-label="Inari logo mark">
  <title>Inari logo mark</title>
  <path d="M 90 7 L 88 9 L 88 11 L 87 12 L 87 13 L 85 16 L 85 18 L 82 23 L 82 25 L 81 26 L 81 27 L 80 28 L 80 30 L 78 33 L 78 35 L 77 36 L 77 38 L 75 41 L 75 43 L 74 44 L 74 46 L 73 47 L 73 49 L 71 52 L 71 54 L 70 55 L 70 57 L 69 58 L 69 60 L 68 61 L 68 63 L 67 64 L 67 66 L 66 67 L 66 69 L 65 70 L 65 73 L 64 74 L 64 76 L 63 77 L 63 80 L 62 81 L 62 83 L 61 84 L 61 87 L 60 88 L 60 91 L 59 92 L 59 95 L 58 96 L 58 99 L 57 100 L 57 103 L 56 104 L 56 108 L 55 109 L 55 113 L 54 114 L 54 118 L 53 119 L 53 123 L 52 124 L 52 129 L 51 130 L 51 136 L 50 137 L 50 143 L 49 144 L 49 150 L 48 151 L 48 160 L 47 161 L 47 172 L 46 173 L 46 191 L 45 192 L 45 213 L 46 214 L 46 234 L 47 235 L 47 247 L 48 248 L 48 256 L 49 257 L 49 264 L 50 265 L 50 271 L 51 272 L 51 277 L 52 278 L 52 283 L 53 284 L 53 288 L 54 289 L 54 293 L 55 294 L 55 298 L 56 299 L 56 303 L 57 304 L 57 307 L 58 308 L 58 312 L 59 313 L 59 316 L 60 317 L 60 319 L 61 320 L 61 323 L 62 324 L 62 327 L 63 328 L 63 330 L 64 331 L 64 334 L 65 335 L 65 337 L 66 338 L 66 341 L 67 342 L 67 344 L 68 345 L 68 347 L 69 348 L 69 350 L 70 351 L 70 353 L 71 354 L 71 356 L 72 357 L 72 359 L 73 360 L 73 362 L 74 363 L 74 365 L 75 366 L 75 368 L 76 369 L 76 371 L 77 372 L 77 373 L 78 374 L 78 376 L 80 379 L 80 381 L 81 382 L 81 384 L 83 387 L 83 389 L 85 392 L 85 394 L 88 399 L 88 401 L 89 402 L 89 405 L 88 406 L 87 409 L 83 414 L 83 415 L 82 416 L 81 419 L 79 421 L 79 422 L 78 423 L 77 426 L 75 428 L 75 429 L 74 430 L 74 431 L 73 432 L 73 433 L 72 434 L 72 435 L 71 436 L 71 437 L 70 438 L 69 441 L 67 443 L 67 445 L 66 446 L 66 447 L 65 448 L 65 449 L 64 450 L 64 451 L 63 452 L 63 453 L 62 454 L 62 455 L 61 456 L 61 457 L 60 458 L 60 459 L 57 464 L 57 466 L 56 467 L 56 468 L 55 469 L 55 470 L 52 475 L 52 477 L 49 482 L 49 484 L 48 485 L 48 486 L 47 487 L 47 489 L 45 492 L 45 494 L 44 495 L 44 497 L 42 500 L 42 502 L 41 503 L 41 505 L 40 506 L 40 508 L 39 509 L 39 510 L 38 511 L 38 513 L 37 514 L 37 517 L 35 520 L 35 523 L 34 524 L 34 526 L 33 527 L 33 529 L 32 530 L 32 532 L 31 533 L 31 536 L 30 537 L 30 539 L 29 540 L 29 543 L 28 544 L 28 546 L 27 547 L 27 550 L 26 551 L 26 554 L 25 555 L 25 558 L 24 559 L 24 562 L 23 563 L 23 566 L 22 567 L 22 570 L 21 571 L 21 575 L 20 576 L 20 579 L 19 580 L 19 584 L 18 585 L 18 589 L 17 590 L 17 594 L 16 595 L 16 600 L 15 601 L 15 606 L 14 607 L 14 612 L 13 613 L 13 618 L 12 619 L 12 625 L 11 626 L 11 633 L 10 634 L 10 641 L 9 642 L 9 650 L 8 651 L 8 660 L 7 661 L 7 668 L 9 668 L 10 669 L 12 669 L 13 670 L 16 670 L 19 672 L 22 672 L 23 673 L 25 673 L 26 674 L 28 674 L 29 675 L 31 675 L 32 676 L 34 676 L 35 677 L 37 677 L 38 678 L 40 678 L 43 680 L 45 680 L 46 681 L 48 681 L 49 682 L 51 682 L 54 684 L 56 684 L 59 686 L 61 686 L 64 688 L 66 688 L 69 690 L 71 690 L 76 693 L 78 693 L 83 696 L 85 696 L 86 697 L 87 697 L 88 698 L 89 698 L 90 699 L 91 699 L 96 702 L 98 702 L 100 704 L 102 704 L 103 705 L 104 705 L 105 706 L 106 706 L 107 707 L 108 707 L 109 708 L 110 708 L 111 709 L 114 710 L 116 712 L 117 712 L 118 713 L 119 713 L 120 714 L 121 714 L 122 715 L 123 715 L 124 716 L 127 717 L 129 719 L 130 719 L 131 720 L 134 721 L 136 723 L 139 724 L 144 728 L 145 728 L 146 729 L 147 729 L 149 731 L 152 732 L 154 734 L 155 734 L 157 736 L 158 736 L 160 738 L 161 738 L 163 740 L 164 740 L 166 742 L 167 742 L 169 744 L 170 744 L 173 747 L 174 747 L 176 749 L 177 749 L 180 752 L 181 752 L 184 755 L 185 755 L 188 758 L 189 758 L 193 762 L 194 762 L 198 766 L 199 766 L 204 771 L 205 771 L 212 778 L 213 778 L 240 805 L 240 806 L 246 812 L 246 813 L 251 818 L 251 819 L 255 823 L 255 824 L 258 827 L 258 828 L 260 830 L 260 831 L 263 834 L 263 835 L 265 837 L 265 838 L 267 840 L 267 841 L 271 846 L 272 849 L 276 854 L 276 855 L 277 856 L 278 859 L 280 861 L 281 864 L 283 866 L 284 869 L 288 874 L 289 877 L 291 879 L 291 880 L 293 882 L 293 883 L 296 886 L 296 887 L 298 889 L 298 890 L 302 894 L 302 895 L 307 900 L 307 901 L 325 919 L 326 919 L 335 927 L 336 927 L 338 929 L 339 929 L 341 931 L 342 931 L 345 934 L 346 934 L 347 935 L 348 935 L 350 937 L 353 938 L 355 940 L 356 940 L 357 941 L 358 941 L 359 942 L 360 942 L 361 943 L 362 943 L 363 944 L 364 944 L 369 947 L 371 947 L 374 949 L 376 949 L 379 951 L 381 951 L 382 952 L 384 952 L 385 953 L 387 953 L 388 954 L 390 954 L 391 955 L 394 955 L 395 956 L 398 956 L 399 957 L 402 957 L 403 958 L 408 958 L 409 959 L 414 959 L 415 960 L 423 960 L 424 961 L 454 961 L 455 960 L 462 960 L 463 959 L 468 959 L 469 958 L 473 958 L 474 957 L 478 957 L 479 956 L 482 956 L 483 955 L 486 955 L 487 954 L 489 954 L 490 953 L 492 953 L 493 952 L 495 952 L 498 950 L 500 950 L 501 949 L 503 949 L 506 947 L 508 947 L 509 946 L 510 946 L 511 945 L 512 945 L 513 944 L 514 944 L 515 943 L 516 943 L 517 942 L 520 941 L 522 939 L 523 939 L 524 938 L 527 937 L 529 935 L 530 935 L 532 933 L 533 933 L 535 931 L 536 931 L 538 929 L 539 929 L 542 926 L 543 926 L 547 922 L 548 922 L 555 915 L 556 915 L 566 905 L 566 904 L 573 897 L 573 896 L 577 892 L 577 891 L 583 884 L 583 883 L 585 881 L 585 880 L 589 875 L 590 872 L 594 867 L 595 864 L 597 862 L 597 861 L 598 860 L 599 857 L 601 855 L 602 852 L 604 850 L 604 849 L 608 844 L 609 841 L 611 839 L 611 838 L 613 836 L 613 835 L 615 833 L 615 832 L 621 825 L 621 824 L 625 820 L 625 819 L 628 816 L 628 815 L 635 808 L 635 807 L 665 777 L 666 777 L 674 769 L 675 769 L 679 765 L 680 765 L 689 757 L 690 757 L 693 754 L 694 754 L 697 751 L 698 751 L 700 749 L 701 749 L 704 746 L 705 746 L 707 744 L 708 744 L 710 742 L 711 742 L 713 740 L 714 740 L 716 738 L 717 738 L 719 736 L 720 736 L 722 734 L 723 734 L 728 730 L 731 729 L 733 727 L 736 726 L 738 724 L 741 723 L 743 721 L 744 721 L 745 720 L 748 719 L 750 717 L 751 717 L 752 716 L 753 716 L 754 715 L 755 715 L 756 714 L 757 714 L 758 713 L 759 713 L 760 712 L 763 711 L 765 709 L 766 709 L 767 708 L 768 708 L 769 707 L 770 707 L 771 706 L 772 706 L 777 703 L 779 703 L 780 702 L 781 702 L 782 701 L 783 701 L 784 700 L 785 700 L 786 699 L 787 699 L 792 696 L 794 696 L 795 695 L 796 695 L 801 692 L 803 692 L 806 690 L 808 690 L 811 688 L 813 688 L 818 685 L 820 685 L 821 684 L 823 684 L 824 683 L 826 683 L 829 681 L 831 681 L 832 680 L 834 680 L 837 678 L 839 678 L 840 677 L 842 677 L 843 676 L 845 676 L 846 675 L 848 675 L 849 674 L 851 674 L 852 673 L 854 673 L 855 672 L 858 672 L 859 671 L 861 671 L 862 670 L 864 670 L 865 669 L 868 669 L 869 668 L 870 668 L 870 664 L 869 663 L 869 653 L 868 652 L 868 644 L 867 643 L 867 636 L 866 635 L 866 628 L 865 627 L 865 621 L 864 620 L 864 615 L 863 614 L 863 609 L 862 608 L 862 603 L 861 602 L 861 597 L 860 596 L 860 592 L 859 591 L 859 587 L 858 586 L 858 582 L 857 581 L 857 578 L 856 577 L 856 573 L 855 572 L 855 569 L 854 568 L 854 564 L 853 563 L 853 560 L 852 559 L 852 556 L 851 555 L 851 552 L 850 551 L 850 548 L 849 547 L 849 545 L 848 544 L 848 541 L 847 540 L 847 538 L 846 537 L 846 535 L 845 534 L 845 531 L 844 530 L 844 528 L 843 527 L 843 525 L 842 524 L 842 522 L 841 521 L 841 519 L 840 518 L 840 516 L 839 515 L 839 513 L 838 512 L 838 510 L 837 509 L 837 507 L 836 506 L 836 504 L 834 501 L 834 499 L 833 498 L 833 496 L 831 493 L 831 491 L 829 488 L 829 486 L 827 483 L 827 481 L 825 478 L 825 476 L 824 475 L 824 474 L 821 469 L 821 467 L 820 466 L 820 465 L 819 464 L 819 463 L 818 462 L 818 461 L 815 456 L 815 454 L 814 453 L 814 452 L 813 451 L 813 450 L 812 449 L 812 448 L 811 447 L 811 446 L 810 445 L 810 444 L 809 443 L 808 440 L 806 438 L 806 437 L 805 436 L 805 435 L 804 434 L 804 433 L 803 432 L 803 431 L 802 430 L 801 427 L 799 425 L 799 424 L 798 423 L 798 422 L 797 421 L 796 418 L 794 416 L 793 413 L 791 411 L 790 408 L 788 406 L 788 405 L 786 402 L 786 399 L 789 394 L 789 392 L 791 389 L 791 387 L 794 382 L 794 380 L 796 377 L 796 375 L 797 374 L 797 373 L 798 372 L 798 370 L 800 367 L 800 365 L 801 364 L 801 362 L 802 361 L 802 359 L 804 356 L 804 354 L 805 353 L 805 351 L 806 350 L 806 347 L 808 344 L 808 341 L 809 340 L 809 338 L 810 337 L 810 334 L 811 333 L 811 331 L 812 330 L 812 328 L 813 327 L 813 324 L 814 323 L 814 320 L 815 319 L 815 317 L 816 316 L 816 313 L 817 312 L 817 309 L 818 308 L 818 305 L 819 304 L 819 301 L 820 300 L 820 296 L 821 295 L 821 291 L 822 290 L 822 286 L 823 285 L 823 281 L 824 280 L 824 275 L 825 274 L 825 269 L 826 268 L 826 261 L 827 260 L 827 254 L 828 253 L 828 245 L 829 244 L 829 234 L 830 233 L 830 218 L 831 217 L 831 184 L 830 183 L 830 166 L 829 165 L 829 155 L 828 154 L 828 147 L 827 146 L 827 140 L 826 139 L 826 132 L 825 131 L 825 127 L 824 126 L 824 121 L 823 120 L 823 116 L 822 115 L 822 111 L 821 110 L 821 106 L 820 105 L 820 102 L 819 101 L 819 98 L 818 97 L 818 93 L 817 92 L 817 89 L 816 88 L 816 86 L 815 85 L 815 82 L 814 81 L 814 79 L 813 78 L 813 75 L 812 74 L 812 72 L 811 71 L 811 68 L 810 67 L 810 65 L 809 64 L 809 62 L 808 61 L 808 59 L 807 58 L 807 56 L 806 55 L 806 53 L 805 52 L 805 50 L 804 49 L 804 47 L 803 46 L 803 44 L 801 41 L 801 39 L 800 38 L 800 36 L 798 33 L 798 31 L 796 28 L 796 26 L 794 23 L 794 21 L 791 16 L 791 14 L 788 9 L 787 10 L 786 10 L 785 11 L 784 11 L 779 14 L 777 14 L 776 15 L 775 15 L 774 16 L 773 16 L 772 17 L 771 17 L 770 18 L 769 18 L 768 19 L 767 19 L 766 20 L 765 20 L 764 21 L 763 21 L 762 22 L 761 22 L 760 23 L 759 23 L 758 24 L 757 24 L 756 25 L 755 25 L 754 26 L 753 26 L 752 27 L 749 28 L 747 30 L 746 30 L 745 31 L 744 31 L 743 32 L 742 32 L 741 33 L 740 33 L 739 34 L 738 34 L 737 35 L 736 35 L 735 36 L 732 37 L 730 39 L 729 39 L 728 40 L 727 40 L 726 41 L 723 42 L 721 44 L 720 44 L 719 45 L 716 46 L 714 48 L 713 48 L 712 49 L 709 50 L 707 52 L 704 53 L 702 55 L 701 55 L 700 56 L 699 56 L 697 58 L 694 59 L 689 63 L 686 64 L 684 66 L 683 66 L 681 68 L 680 68 L 678 70 L 677 70 L 675 72 L 674 72 L 672 74 L 671 74 L 669 76 L 668 76 L 666 78 L 665 78 L 662 81 L 661 81 L 659 83 L 658 83 L 656 85 L 655 85 L 652 88 L 651 88 L 648 91 L 647 91 L 644 94 L 643 94 L 640 97 L 639 97 L 630 105 L 629 105 L 624 110 L 623 110 L 617 116 L 616 116 L 608 124 L 607 124 L 581 150 L 581 151 L 573 159 L 573 160 L 568 165 L 568 166 L 564 170 L 564 171 L 561 174 L 561 175 L 558 178 L 558 179 L 552 186 L 552 187 L 550 189 L 550 190 L 548 192 L 548 193 L 546 195 L 546 196 L 542 201 L 542 202 L 541 203 L 541 204 L 539 206 L 538 209 L 536 211 L 536 212 L 535 213 L 535 214 L 534 215 L 534 216 L 533 217 L 532 220 L 530 222 L 530 224 L 529 225 L 529 226 L 527 228 L 527 229 L 526 230 L 526 232 L 525 233 L 525 234 L 524 235 L 524 236 L 521 241 L 521 243 L 520 244 L 520 245 L 519 246 L 519 248 L 517 251 L 517 253 L 516 254 L 516 256 L 514 259 L 514 261 L 513 262 L 513 264 L 512 265 L 512 267 L 511 268 L 511 270 L 510 271 L 510 273 L 509 274 L 509 277 L 508 278 L 508 280 L 507 281 L 507 284 L 506 285 L 506 289 L 505 290 L 505 293 L 504 294 L 504 298 L 503 299 L 503 304 L 502 305 L 502 310 L 501 311 L 500 310 L 500 307 L 499 306 L 499 298 L 498 297 L 498 281 L 497 280 L 497 268 L 498 267 L 498 254 L 499 253 L 499 246 L 500 245 L 500 239 L 501 238 L 501 233 L 502 232 L 502 228 L 503 227 L 503 224 L 504 223 L 504 221 L 505 220 L 505 217 L 506 216 L 506 213 L 507 212 L 507 210 L 508 209 L 508 208 L 507 207 L 505 207 L 504 206 L 502 206 L 501 205 L 497 205 L 496 204 L 493 204 L 492 203 L 489 203 L 488 202 L 483 202 L 482 201 L 477 201 L 476 200 L 471 200 L 470 199 L 463 199 L 462 198 L 454 198 L 453 197 L 434 197 L 433 196 L 418 196 L 417 197 L 400 197 L 399 198 L 392 198 L 391 199 L 384 199 L 383 200 L 378 200 L 377 201 L 372 201 L 371 202 L 367 202 L 366 203 L 362 203 L 361 204 L 358 204 L 357 205 L 354 205 L 353 206 L 351 206 L 350 207 L 347 207 L 346 208 L 344 208 L 343 209 L 340 209 L 339 210 L 337 210 L 336 209 L 335 206 L 333 204 L 332 201 L 330 199 L 329 196 L 327 194 L 327 193 L 325 191 L 325 190 L 323 188 L 323 187 L 321 185 L 321 184 L 319 182 L 319 181 L 316 178 L 316 177 L 314 175 L 314 174 L 310 170 L 310 169 L 307 166 L 307 165 L 302 160 L 302 159 L 298 155 L 298 154 L 291 147 L 291 146 L 278 133 L 278 132 L 277 131 L 276 131 L 274 129 L 274 128 L 272 126 L 271 126 L 270 125 L 270 124 L 269 124 L 257 112 L 256 112 L 243 100 L 242 100 L 238 96 L 237 96 L 233 92 L 232 92 L 229 89 L 228 89 L 224 85 L 223 85 L 220 82 L 219 82 L 212 76 L 211 76 L 209 74 L 208 74 L 206 72 L 205 72 L 202 69 L 201 69 L 199 67 L 198 67 L 196 65 L 195 65 L 193 63 L 192 63 L 187 59 L 184 58 L 182 56 L 181 56 L 176 52 L 173 51 L 171 49 L 168 48 L 166 46 L 163 45 L 161 43 L 160 43 L 159 42 L 156 41 L 154 39 L 153 39 L 152 38 L 149 37 L 147 35 L 146 35 L 145 34 L 144 34 L 143 33 L 142 33 L 141 32 L 140 32 L 139 31 L 138 31 L 137 30 L 134 29 L 132 27 L 131 27 L 130 26 L 129 26 L 128 25 L 127 25 L 126 24 L 125 24 L 124 23 L 123 23 L 122 22 L 121 22 L 120 21 L 119 21 L 114 18 L 112 18 L 110 16 L 108 16 L 107 15 L 106 15 L 105 14 L 104 14 L 103 13 L 102 13 L 101 12 L 100 12 L 95 9 L 93 9 Z M 766 68 L 768 70 L 768 72 L 769 73 L 769 75 L 770 76 L 770 78 L 771 79 L 771 81 L 772 82 L 772 84 L 773 85 L 773 87 L 774 88 L 774 91 L 775 92 L 775 94 L 776 95 L 776 98 L 777 99 L 777 102 L 778 103 L 778 106 L 779 107 L 779 110 L 780 111 L 780 114 L 781 115 L 781 119 L 782 120 L 782 125 L 783 126 L 783 130 L 784 131 L 784 137 L 785 138 L 785 143 L 786 144 L 786 151 L 787 152 L 787 164 L 788 165 L 788 207 L 787 208 L 787 218 L 786 219 L 786 225 L 785 226 L 785 232 L 784 233 L 784 238 L 783 239 L 783 243 L 782 244 L 782 247 L 781 248 L 781 251 L 780 252 L 780 256 L 779 257 L 779 259 L 778 260 L 778 262 L 777 263 L 777 265 L 776 266 L 776 268 L 775 269 L 775 272 L 774 273 L 774 275 L 773 276 L 773 278 L 772 279 L 772 280 L 771 281 L 771 283 L 768 288 L 768 290 L 767 291 L 767 292 L 766 293 L 766 294 L 765 295 L 765 296 L 764 297 L 764 298 L 763 299 L 763 300 L 762 301 L 762 302 L 761 303 L 761 304 L 760 305 L 760 306 L 759 307 L 758 310 L 756 312 L 755 315 L 753 317 L 753 318 L 751 320 L 751 321 L 749 323 L 749 324 L 746 327 L 746 328 L 744 330 L 744 331 L 741 334 L 741 335 L 736 340 L 736 341 L 715 362 L 714 362 L 710 366 L 709 366 L 705 370 L 704 370 L 702 372 L 701 372 L 698 375 L 697 375 L 695 377 L 694 377 L 689 381 L 686 382 L 684 384 L 683 384 L 682 385 L 679 386 L 677 388 L 676 388 L 675 389 L 674 389 L 673 390 L 672 390 L 671 391 L 670 391 L 665 394 L 663 394 L 658 397 L 656 397 L 653 399 L 651 399 L 648 401 L 646 401 L 645 402 L 643 402 L 642 403 L 640 403 L 639 404 L 637 404 L 636 405 L 634 405 L 633 406 L 630 406 L 629 407 L 627 407 L 623 411 L 622 411 L 606 427 L 606 428 L 598 436 L 598 437 L 592 443 L 592 444 L 589 447 L 589 448 L 585 452 L 585 453 L 579 460 L 579 461 L 577 463 L 577 464 L 575 466 L 575 467 L 573 469 L 573 470 L 571 472 L 571 473 L 567 478 L 567 479 L 566 480 L 566 481 L 564 483 L 563 486 L 561 488 L 561 489 L 560 490 L 560 491 L 559 492 L 559 493 L 558 494 L 558 495 L 557 496 L 557 497 L 556 498 L 556 499 L 555 500 L 555 501 L 554 502 L 554 503 L 553 504 L 553 505 L 552 506 L 552 507 L 551 508 L 551 509 L 548 514 L 548 516 L 547 517 L 547 518 L 546 519 L 546 521 L 544 524 L 544 526 L 543 527 L 543 529 L 542 530 L 542 532 L 541 533 L 541 535 L 540 536 L 540 538 L 539 539 L 539 541 L 538 542 L 538 544 L 537 545 L 537 548 L 536 549 L 536 552 L 535 553 L 535 556 L 534 557 L 534 560 L 533 561 L 533 565 L 533 564 L 535 562 L 535 561 L 536 560 L 537 557 L 539 555 L 539 554 L 542 551 L 542 550 L 545 547 L 545 546 L 551 540 L 551 539 L 559 531 L 560 531 L 565 526 L 566 526 L 569 523 L 570 523 L 572 521 L 575 520 L 577 518 L 578 518 L 579 517 L 580 517 L 581 516 L 582 516 L 583 515 L 584 515 L 585 514 L 586 514 L 591 511 L 593 511 L 596 509 L 598 509 L 599 508 L 601 508 L 602 507 L 604 507 L 605 506 L 607 506 L 608 505 L 610 505 L 611 504 L 614 504 L 615 503 L 618 503 L 619 502 L 623 502 L 624 501 L 629 501 L 630 500 L 636 500 L 637 499 L 644 499 L 645 498 L 683 498 L 684 499 L 683 500 L 682 500 L 680 502 L 677 503 L 674 506 L 673 506 L 669 510 L 668 510 L 666 512 L 666 513 L 661 518 L 661 519 L 660 520 L 660 521 L 658 523 L 658 524 L 657 525 L 657 526 L 656 527 L 655 530 L 653 532 L 653 533 L 652 534 L 652 535 L 651 536 L 650 539 L 648 541 L 648 542 L 646 544 L 646 545 L 644 547 L 644 548 L 640 552 L 640 553 L 632 561 L 631 561 L 627 565 L 626 565 L 623 568 L 622 568 L 620 570 L 619 570 L 618 571 L 617 571 L 616 572 L 615 572 L 614 573 L 613 573 L 612 574 L 611 574 L 606 577 L 604 577 L 601 579 L 598 579 L 597 580 L 595 580 L 594 581 L 591 581 L 590 582 L 586 582 L 585 583 L 579 583 L 578 584 L 570 584 L 569 585 L 565 585 L 564 586 L 562 586 L 561 587 L 559 587 L 558 588 L 556 588 L 555 589 L 552 590 L 550 592 L 549 592 L 546 595 L 545 595 L 540 600 L 540 601 L 537 604 L 537 605 L 535 607 L 535 608 L 532 613 L 532 615 L 531 616 L 531 618 L 530 619 L 530 621 L 529 622 L 529 631 L 528 632 L 528 636 L 529 637 L 529 649 L 530 650 L 530 657 L 531 658 L 531 664 L 532 665 L 532 669 L 533 670 L 533 675 L 534 676 L 534 680 L 535 681 L 535 685 L 536 686 L 536 690 L 537 691 L 537 695 L 538 696 L 538 700 L 539 701 L 539 705 L 540 706 L 540 709 L 541 710 L 541 714 L 542 715 L 542 718 L 543 719 L 543 723 L 544 724 L 544 728 L 545 729 L 545 732 L 546 733 L 546 738 L 547 739 L 547 743 L 548 744 L 548 748 L 549 749 L 549 754 L 550 755 L 550 758 L 551 758 L 552 757 L 552 756 L 555 753 L 555 752 L 558 749 L 558 748 L 563 743 L 563 742 L 571 734 L 571 733 L 581 723 L 582 723 L 590 715 L 591 715 L 596 710 L 597 710 L 604 704 L 605 704 L 607 702 L 608 702 L 611 699 L 612 699 L 614 697 L 617 696 L 622 692 L 623 692 L 624 691 L 627 690 L 629 688 L 630 688 L 631 687 L 632 687 L 633 686 L 634 686 L 635 685 L 636 685 L 637 684 L 638 684 L 639 683 L 640 683 L 641 682 L 642 682 L 643 681 L 644 681 L 645 680 L 646 680 L 647 679 L 648 679 L 649 678 L 650 678 L 655 675 L 657 675 L 662 672 L 664 672 L 665 671 L 667 671 L 668 670 L 669 670 L 670 669 L 672 669 L 675 667 L 677 667 L 678 666 L 681 666 L 682 665 L 684 665 L 685 664 L 687 664 L 688 663 L 690 663 L 691 662 L 694 662 L 695 661 L 697 661 L 698 660 L 701 660 L 702 659 L 705 659 L 706 658 L 709 658 L 710 657 L 714 657 L 715 656 L 719 656 L 720 655 L 723 655 L 724 654 L 729 654 L 730 653 L 735 653 L 736 652 L 742 652 L 743 651 L 751 651 L 752 650 L 763 650 L 764 649 L 799 649 L 800 650 L 799 651 L 795 651 L 794 652 L 792 652 L 791 653 L 789 653 L 788 654 L 786 654 L 785 655 L 783 655 L 782 656 L 780 656 L 779 657 L 777 657 L 774 659 L 772 659 L 771 660 L 769 660 L 766 662 L 764 662 L 761 664 L 759 664 L 754 667 L 752 667 L 751 668 L 750 668 L 745 671 L 743 671 L 742 672 L 741 672 L 740 673 L 739 673 L 738 674 L 737 674 L 736 675 L 735 675 L 734 676 L 733 676 L 732 677 L 731 677 L 730 678 L 729 678 L 728 679 L 727 679 L 726 680 L 725 680 L 724 681 L 723 681 L 722 682 L 721 682 L 720 683 L 717 684 L 715 686 L 714 686 L 713 687 L 712 687 L 711 688 L 708 689 L 706 691 L 703 692 L 701 694 L 698 695 L 696 697 L 695 697 L 694 698 L 693 698 L 691 700 L 688 701 L 686 703 L 685 703 L 682 706 L 679 707 L 676 710 L 675 710 L 673 712 L 672 712 L 669 715 L 668 715 L 666 717 L 665 717 L 661 721 L 660 721 L 657 724 L 656 724 L 647 732 L 646 732 L 640 738 L 639 738 L 630 747 L 629 747 L 612 764 L 612 765 L 603 774 L 603 775 L 597 781 L 597 782 L 593 786 L 593 787 L 588 792 L 588 793 L 585 796 L 585 797 L 579 804 L 579 805 L 577 807 L 577 808 L 575 810 L 575 811 L 573 813 L 573 814 L 569 819 L 568 822 L 564 827 L 563 830 L 561 832 L 560 835 L 558 837 L 558 838 L 557 839 L 556 842 L 554 844 L 553 847 L 551 849 L 551 850 L 549 852 L 549 853 L 547 855 L 547 856 L 545 858 L 545 859 L 541 863 L 541 864 L 535 870 L 535 871 L 526 880 L 525 880 L 519 886 L 518 886 L 511 892 L 510 892 L 505 896 L 502 897 L 500 899 L 499 899 L 498 900 L 497 900 L 496 901 L 495 901 L 490 904 L 488 904 L 485 906 L 483 906 L 482 907 L 480 907 L 479 908 L 476 908 L 475 909 L 471 909 L 470 908 L 467 908 L 466 907 L 465 907 L 460 902 L 460 901 L 459 900 L 459 893 L 460 892 L 460 890 L 464 886 L 465 886 L 467 884 L 468 884 L 469 883 L 470 883 L 471 882 L 474 881 L 476 879 L 477 879 L 479 877 L 480 877 L 485 872 L 486 872 L 489 869 L 489 868 L 494 863 L 494 862 L 496 860 L 496 859 L 498 857 L 498 856 L 500 853 L 500 851 L 501 850 L 501 848 L 502 847 L 502 845 L 503 844 L 503 839 L 504 838 L 504 832 L 503 831 L 503 827 L 502 826 L 502 824 L 501 823 L 500 820 L 497 817 L 497 816 L 494 813 L 493 813 L 490 810 L 489 810 L 487 808 L 486 808 L 483 806 L 481 806 L 478 804 L 475 804 L 474 803 L 472 803 L 471 802 L 468 802 L 467 801 L 463 801 L 462 800 L 455 800 L 454 799 L 445 799 L 444 798 L 431 798 L 430 799 L 420 799 L 419 800 L 413 800 L 412 801 L 409 801 L 408 802 L 405 802 L 404 803 L 402 803 L 401 804 L 399 804 L 398 805 L 396 805 L 395 806 L 394 806 L 393 807 L 392 807 L 391 808 L 388 809 L 385 812 L 384 812 L 378 818 L 378 819 L 377 820 L 377 821 L 374 826 L 374 829 L 373 830 L 373 840 L 374 841 L 374 845 L 375 846 L 375 848 L 376 849 L 376 851 L 377 852 L 377 853 L 378 854 L 378 855 L 379 856 L 380 859 L 382 861 L 382 862 L 385 865 L 385 866 L 394 875 L 395 875 L 398 878 L 399 878 L 404 882 L 405 882 L 406 883 L 407 883 L 408 884 L 411 885 L 416 890 L 416 891 L 417 892 L 417 894 L 418 895 L 418 897 L 417 898 L 417 901 L 415 903 L 415 904 L 413 906 L 412 906 L 409 908 L 406 908 L 405 909 L 403 909 L 402 908 L 398 908 L 397 907 L 394 907 L 391 905 L 389 905 L 388 904 L 387 904 L 386 903 L 385 903 L 384 902 L 383 902 L 382 901 L 381 901 L 380 900 L 379 900 L 378 899 L 375 898 L 373 896 L 370 895 L 368 893 L 367 893 L 365 891 L 364 891 L 360 887 L 359 887 L 356 884 L 355 884 L 338 867 L 338 866 L 334 862 L 334 861 L 331 858 L 331 857 L 329 855 L 329 854 L 326 851 L 326 850 L 325 849 L 325 848 L 323 846 L 323 845 L 322 844 L 321 841 L 319 839 L 318 836 L 316 834 L 316 833 L 315 832 L 315 831 L 313 829 L 312 826 L 308 821 L 307 818 L 305 816 L 305 815 L 303 813 L 303 812 L 301 810 L 301 809 L 299 807 L 299 806 L 296 803 L 296 802 L 293 799 L 293 798 L 290 795 L 290 794 L 287 791 L 287 790 L 283 786 L 283 785 L 277 779 L 277 778 L 272 773 L 272 772 L 258 758 L 258 757 L 256 755 L 255 755 L 240 740 L 239 740 L 233 734 L 232 734 L 227 729 L 226 729 L 217 721 L 216 721 L 214 719 L 213 719 L 210 716 L 209 716 L 202 710 L 201 710 L 199 708 L 196 707 L 193 704 L 192 704 L 190 702 L 187 701 L 185 699 L 184 699 L 182 697 L 179 696 L 177 694 L 176 694 L 175 693 L 172 692 L 167 688 L 166 688 L 165 687 L 164 687 L 163 686 L 162 686 L 161 685 L 160 685 L 159 684 L 156 683 L 154 681 L 153 681 L 152 680 L 151 680 L 150 679 L 149 679 L 148 678 L 147 678 L 142 675 L 140 675 L 139 674 L 138 674 L 137 673 L 136 673 L 135 672 L 134 672 L 133 671 L 132 671 L 127 668 L 125 668 L 120 665 L 118 665 L 115 663 L 113 663 L 112 662 L 111 662 L 110 661 L 108 661 L 105 659 L 103 659 L 102 658 L 100 658 L 99 657 L 97 657 L 94 655 L 92 655 L 91 654 L 89 654 L 88 653 L 85 653 L 84 652 L 82 652 L 81 651 L 78 651 L 77 650 L 78 649 L 114 649 L 115 650 L 125 650 L 126 651 L 134 651 L 135 652 L 141 652 L 142 653 L 147 653 L 148 654 L 153 654 L 154 655 L 158 655 L 159 656 L 163 656 L 164 657 L 167 657 L 168 658 L 171 658 L 172 659 L 175 659 L 176 660 L 179 660 L 180 661 L 183 661 L 184 662 L 186 662 L 187 663 L 189 663 L 190 664 L 192 664 L 193 665 L 195 665 L 196 666 L 198 666 L 199 667 L 201 667 L 202 668 L 204 668 L 205 669 L 207 669 L 210 671 L 212 671 L 213 672 L 214 672 L 215 673 L 217 673 L 222 676 L 224 676 L 225 677 L 226 677 L 231 680 L 233 680 L 234 681 L 235 681 L 237 683 L 238 683 L 239 684 L 240 684 L 241 685 L 242 685 L 243 686 L 244 686 L 245 687 L 248 688 L 250 690 L 251 690 L 252 691 L 253 691 L 255 693 L 258 694 L 260 696 L 261 696 L 263 698 L 264 698 L 266 700 L 267 700 L 269 702 L 270 702 L 277 708 L 278 708 L 282 712 L 283 712 L 287 716 L 288 716 L 312 740 L 312 741 L 316 745 L 316 746 L 321 751 L 321 752 L 323 754 L 323 755 L 326 758 L 326 759 L 328 761 L 328 762 L 332 767 L 333 770 L 337 775 L 337 776 L 338 777 L 338 778 L 339 779 L 339 780 L 340 781 L 340 782 L 341 783 L 342 786 L 344 788 L 344 790 L 346 793 L 347 793 L 349 791 L 350 791 L 353 788 L 354 788 L 359 784 L 362 783 L 364 781 L 365 781 L 366 780 L 367 780 L 368 779 L 369 779 L 374 776 L 376 776 L 379 774 L 381 774 L 384 772 L 386 772 L 387 771 L 390 771 L 391 770 L 393 770 L 394 769 L 397 769 L 398 768 L 401 768 L 402 767 L 406 767 L 407 766 L 413 766 L 414 765 L 422 765 L 423 764 L 450 764 L 451 765 L 460 765 L 461 766 L 466 766 L 467 767 L 471 767 L 472 768 L 475 768 L 476 769 L 479 769 L 480 770 L 483 770 L 484 771 L 486 771 L 487 772 L 489 772 L 490 773 L 492 773 L 495 775 L 497 775 L 500 777 L 502 777 L 503 778 L 504 778 L 505 779 L 506 779 L 507 780 L 508 780 L 509 781 L 510 781 L 511 782 L 514 783 L 514 775 L 513 774 L 513 765 L 512 764 L 512 757 L 511 756 L 511 750 L 510 749 L 510 744 L 509 743 L 509 739 L 508 738 L 508 733 L 507 732 L 507 728 L 506 727 L 506 723 L 505 722 L 505 718 L 504 717 L 504 713 L 503 712 L 503 708 L 502 707 L 502 703 L 501 702 L 501 698 L 500 697 L 500 693 L 499 692 L 499 687 L 498 686 L 498 682 L 497 681 L 497 675 L 496 674 L 496 668 L 495 667 L 495 662 L 494 661 L 494 653 L 493 652 L 493 642 L 492 641 L 492 595 L 493 594 L 493 586 L 494 585 L 494 578 L 495 577 L 495 573 L 496 572 L 496 567 L 497 566 L 497 562 L 498 561 L 498 558 L 499 557 L 499 554 L 500 553 L 500 550 L 501 549 L 501 546 L 502 545 L 502 543 L 503 542 L 503 540 L 504 539 L 504 537 L 505 536 L 505 534 L 506 533 L 506 531 L 507 530 L 507 528 L 508 527 L 508 525 L 510 522 L 510 520 L 512 517 L 512 515 L 513 514 L 513 513 L 516 508 L 516 506 L 517 505 L 517 504 L 518 503 L 518 502 L 519 501 L 519 500 L 520 499 L 520 498 L 521 497 L 521 496 L 522 495 L 523 492 L 525 490 L 525 489 L 526 488 L 526 487 L 527 486 L 528 483 L 530 481 L 531 478 L 533 476 L 533 475 L 534 474 L 534 473 L 536 471 L 537 468 L 540 465 L 540 464 L 542 462 L 542 461 L 548 454 L 548 453 L 550 451 L 550 450 L 554 446 L 554 445 L 557 442 L 557 441 L 561 437 L 561 436 L 566 431 L 566 430 L 572 424 L 572 423 L 581 414 L 581 413 L 593 401 L 593 400 L 610 383 L 610 382 L 621 371 L 621 370 L 628 363 L 628 362 L 634 356 L 634 355 L 644 344 L 644 343 L 647 340 L 647 339 L 650 336 L 650 335 L 654 331 L 654 330 L 656 328 L 656 327 L 659 324 L 659 323 L 661 321 L 661 320 L 664 317 L 664 316 L 668 311 L 669 308 L 673 303 L 674 300 L 676 298 L 677 295 L 679 293 L 680 290 L 682 288 L 682 287 L 683 286 L 684 283 L 686 281 L 686 280 L 687 279 L 687 278 L 688 277 L 688 276 L 689 275 L 689 274 L 690 273 L 690 272 L 691 271 L 691 270 L 692 269 L 692 268 L 693 267 L 693 266 L 694 265 L 694 264 L 695 263 L 695 262 L 696 261 L 696 260 L 697 259 L 697 258 L 698 257 L 698 256 L 701 251 L 701 249 L 703 246 L 703 244 L 704 243 L 704 242 L 706 239 L 706 237 L 708 234 L 708 232 L 709 231 L 709 229 L 710 228 L 710 226 L 712 223 L 712 221 L 713 220 L 713 218 L 714 217 L 714 215 L 715 214 L 715 211 L 716 210 L 716 208 L 717 207 L 717 205 L 718 204 L 718 202 L 719 201 L 719 198 L 720 197 L 720 194 L 721 193 L 721 191 L 722 190 L 722 186 L 723 185 L 723 182 L 724 181 L 724 177 L 725 176 L 725 172 L 726 171 L 726 166 L 727 165 L 727 161 L 728 160 L 728 156 L 729 155 L 729 154 L 728 153 L 728 154 L 726 157 L 726 159 L 725 160 L 725 161 L 724 162 L 724 163 L 723 164 L 723 165 L 722 166 L 722 167 L 721 168 L 721 169 L 720 170 L 720 171 L 719 172 L 719 173 L 718 174 L 718 175 L 717 176 L 717 177 L 716 178 L 716 179 L 715 180 L 715 181 L 714 182 L 714 183 L 713 184 L 713 185 L 712 186 L 712 187 L 711 188 L 711 189 L 710 190 L 709 193 L 707 195 L 707 196 L 706 197 L 706 198 L 705 199 L 704 202 L 702 204 L 702 205 L 701 206 L 700 209 L 698 211 L 697 214 L 695 216 L 695 217 L 694 218 L 694 219 L 692 221 L 691 224 L 689 226 L 689 227 L 685 232 L 684 235 L 682 237 L 682 238 L 680 240 L 680 241 L 678 243 L 678 244 L 676 246 L 676 247 L 674 249 L 674 250 L 671 253 L 671 254 L 669 256 L 669 257 L 666 260 L 666 261 L 664 263 L 664 264 L 661 267 L 661 268 L 658 271 L 658 272 L 655 275 L 655 276 L 652 279 L 652 280 L 647 285 L 647 286 L 643 290 L 643 291 L 638 296 L 638 297 L 632 303 L 632 304 L 623 313 L 623 314 L 594 343 L 593 343 L 585 351 L 584 351 L 578 357 L 577 357 L 575 359 L 573 357 L 573 352 L 572 351 L 572 345 L 571 344 L 571 338 L 570 337 L 570 320 L 569 319 L 569 311 L 570 310 L 570 296 L 571 295 L 571 288 L 572 287 L 572 281 L 573 280 L 573 276 L 574 275 L 574 271 L 575 270 L 575 267 L 576 266 L 576 264 L 577 263 L 577 260 L 578 259 L 578 257 L 579 256 L 579 254 L 580 253 L 580 251 L 581 250 L 581 248 L 582 247 L 582 245 L 583 244 L 583 242 L 585 239 L 585 237 L 586 236 L 586 235 L 589 230 L 589 228 L 590 227 L 591 224 L 593 222 L 593 221 L 594 220 L 594 219 L 595 218 L 596 215 L 598 213 L 599 210 L 601 208 L 602 205 L 604 203 L 604 202 L 606 200 L 606 199 L 608 197 L 608 196 L 611 193 L 611 192 L 614 189 L 614 188 L 618 184 L 618 183 L 623 178 L 623 177 L 630 170 L 630 169 L 652 147 L 653 147 L 661 139 L 662 139 L 668 133 L 669 133 L 678 125 L 679 125 L 682 122 L 683 122 L 686 119 L 687 119 L 694 113 L 695 113 L 697 111 L 698 111 L 700 109 L 701 109 L 704 106 L 705 106 L 707 104 L 708 104 L 710 102 L 711 102 L 713 100 L 714 100 L 719 96 L 722 95 L 727 91 L 730 90 L 735 86 L 738 85 L 740 83 L 741 83 L 742 82 L 743 82 L 745 80 L 746 80 L 747 79 L 750 78 L 752 76 L 755 75 L 757 73 L 758 73 L 759 72 L 762 71 L 764 69 L 765 69 Z M 193 499 L 194 498 L 204 498 L 205 497 L 228 497 L 229 498 L 241 498 L 242 499 L 249 499 L 250 500 L 255 500 L 256 501 L 260 501 L 261 502 L 264 502 L 265 503 L 269 503 L 270 504 L 272 504 L 273 505 L 275 505 L 276 506 L 279 506 L 280 507 L 281 507 L 282 508 L 284 508 L 287 510 L 289 510 L 290 511 L 291 511 L 292 512 L 293 512 L 294 513 L 295 513 L 296 514 L 297 514 L 298 515 L 299 515 L 300 516 L 303 517 L 305 519 L 306 519 L 307 520 L 308 520 L 310 522 L 311 522 L 314 525 L 315 525 L 320 530 L 321 530 L 328 537 L 328 538 L 333 543 L 333 544 L 336 547 L 336 548 L 338 550 L 338 551 L 342 556 L 342 557 L 343 558 L 343 559 L 344 560 L 344 561 L 345 562 L 345 563 L 346 564 L 346 565 L 349 570 L 349 572 L 351 575 L 351 577 L 353 580 L 353 583 L 354 584 L 354 586 L 355 587 L 355 590 L 356 591 L 356 593 L 357 594 L 357 599 L 358 600 L 358 605 L 359 606 L 359 640 L 358 641 L 358 643 L 357 644 L 356 643 L 356 639 L 355 638 L 355 635 L 354 634 L 354 632 L 353 631 L 353 629 L 352 628 L 352 626 L 350 623 L 350 621 L 349 620 L 349 619 L 348 618 L 348 617 L 347 616 L 346 613 L 344 611 L 344 610 L 343 609 L 343 608 L 341 606 L 341 605 L 333 596 L 332 596 L 328 592 L 327 592 L 326 591 L 325 591 L 324 590 L 323 590 L 318 587 L 316 587 L 315 586 L 312 586 L 311 585 L 307 585 L 306 584 L 298 584 L 297 583 L 292 583 L 291 582 L 287 582 L 286 581 L 283 581 L 282 580 L 279 580 L 278 579 L 276 579 L 275 578 L 273 578 L 270 576 L 268 576 L 267 575 L 266 575 L 265 574 L 264 574 L 263 573 L 262 573 L 261 572 L 258 571 L 256 569 L 255 569 L 253 567 L 252 567 L 249 564 L 248 564 L 234 550 L 234 549 L 231 546 L 231 545 L 227 540 L 227 539 L 226 538 L 226 537 L 225 536 L 224 533 L 222 531 L 222 530 L 221 529 L 221 528 L 220 527 L 220 526 L 219 525 L 219 524 L 218 523 L 217 520 L 215 518 L 215 517 L 204 506 L 203 506 L 198 502 L 195 501 Z" fill="#000000" fill-rule="evenodd"/>
</svg>
